<svg xmlns="http://www.w3.org/2000/svg" viewBox="0 0 64 64" fill="none">
  <circle cx="32" cy="32" r="32" fill="#256B49"/>
  <path d="M32 10c-3 4-5 7-5 11a5 5 0 0 0 10 0c0-4-2-7-5-11Z" fill="#D4AF37"/>
  <path d="M14 46v-8c0-6 4-11 9-13v-3h4v3a12 12 0 0 1 5-1 12 12 0 0 1 5 1v-3h4v3c5 2 9 7 9 13v8H14Z" fill="#FFFFFF"/>
  <rect x="14" y="46" width="36" height="4" fill="#FFFFFF"/>
  <path d="M22 46v-6a3 3 0 0 1 6 0v6h-6Z" fill="#256B49"/>
  <path d="M36 46v-6a3 3 0 0 1 6 0v6h-6Z" fill="#256B49"/>
  <circle cx="32" cy="34" r="3" fill="#256B49"/>
</svg>
